<svg width="226" height="43" viewBox="0 0 226 43" fill="none" xmlns="http://www.w3.org/2000/svg">
<path d="M0.4375 33H4.30469V20.9258H11.0508C11.3086 20.9258 11.5664 20.9258 11.8027 20.9043L18.3125 33H22.8242L15.8203 20.1953C19.7734 18.8203 21.6211 15.5977 21.6211 11.4727C21.6211 5.92969 18.291 1.89062 11.0078 1.89062H0.4375V33ZM4.30469 17.4023V5.32812H10.8359C15.8418 5.32812 17.7754 7.75586 17.7969 11.4727C17.7754 15.168 15.8418 17.4023 10.8789 17.4023H4.30469ZM36.0156 33.4727C42.3535 33.4941 46.6074 28.6816 46.5859 21.4414C46.6074 14.1582 42.3535 9.36719 36.0156 9.36719C29.6562 9.36719 25.3594 14.1582 25.3594 21.4414C25.3594 28.6816 29.6562 33.4941 36.0156 33.4727ZM29.0547 21.4414C29.0762 16.8008 31.2676 12.6328 36.0156 12.6328C40.7207 12.6328 42.8906 16.8008 42.8906 21.4414C42.8906 26.1035 40.7207 30.207 36.0156 30.207C31.2676 30.207 29.0762 26.1035 29.0547 21.4414ZM55.1367 1.89062H51.4414V33H55.1367V1.89062ZM64.7188 1.89062H61.0234V33H64.7188V1.89062ZM70.6055 33H74.3008V9.66797H70.6055V33ZM69.875 3.35156C69.8535 4.70508 71.0352 5.80078 72.4531 5.80078C73.8711 5.80078 75.0527 4.70508 75.0742 3.35156C75.0527 1.97656 73.8711 0.880859 72.4531 0.902344C71.0352 0.880859 69.8535 1.97656 69.875 3.35156ZM83.8828 18.9922C83.8828 14.9531 86.375 12.6758 89.7695 12.6758C93.0781 12.6758 95.0547 14.8242 95.0547 18.4336V33H98.75V18.1758C98.7715 12.2461 95.6133 9.36719 90.8867 9.36719C87.3418 9.36719 85.1504 10.9355 84.0547 13.3203H83.7539V9.66797H80.1875V33H83.8828V18.9922ZM114.133 42.2383C119.826 42.2383 124.252 39.6602 124.273 33.6445V9.66797H120.664V13.3633H120.363C119.525 12.1172 118.064 9.36719 113.531 9.36719C107.666 9.36719 103.562 13.8359 103.562 21.0117C103.562 28.3594 107.816 32.6348 113.488 32.6562C118 32.6348 119.482 29.9922 120.277 28.7031H120.578V33.4297C120.578 37.2754 118.129 39.0156 114.133 39.0156C110.824 39.0156 108.611 37.834 108.117 35.4492H104.25C104.658 39.7676 108.482 42.2383 114.133 42.2383ZM107.301 21.1406C107.301 16.4355 109.514 12.6758 114.004 12.6758C118.344 12.6758 120.643 16.1348 120.664 21.1406C120.643 26.2754 118.279 29.3477 114.004 29.3477C109.578 29.3477 107.301 25.9746 107.301 21.1406ZM130.633 33H134.5V21.6992H141.246C148.486 21.6992 151.816 17.2949 151.816 11.7734C151.816 6.23047 148.486 1.89062 141.203 1.89062H130.633V33ZM134.5 18.2617V5.32812H141.031C146.037 5.32812 147.971 8.05664 147.992 11.7734C147.971 15.4688 146.037 18.2617 141.074 18.2617H134.5ZM155.598 26.3828C155.598 30.9375 159.121 33.5371 163.547 33.5586C167.607 33.5371 169.734 31.3887 170.508 29.8203H170.68V33H174.332V17.6172C174.354 10.2695 168.617 9.36719 165.566 9.36719C160.41 9.36719 156.758 11.9668 156.285 15.7266H160.152C160.668 13.9434 162.451 12.5898 165.395 12.5898C168.918 12.5898 170.68 14.3086 170.68 17.2734V19.1641C169.627 19.1855 165.867 19.4004 164.363 19.5078C160.324 19.8086 155.598 21.0332 155.598 26.3828ZM159.293 26.5547C159.314 23.998 161.441 22.8164 164.793 22.6016C165.91 22.5371 169.584 22.2578 170.68 22.1934V24.5352C170.68 27.4785 168.359 30.2715 164.191 30.25C161.355 30.2715 159.314 29.0254 159.293 26.5547ZM189.715 42.2383C195.408 42.2383 199.834 39.6602 199.855 33.6445V9.66797H196.246V13.3633H195.945C195.107 12.1172 193.646 9.36719 189.113 9.36719C183.248 9.36719 179.145 13.8359 179.145 21.0117C179.145 28.3594 183.398 32.6348 189.07 32.6562C193.582 32.6348 195.064 29.9922 195.859 28.7031H196.16V33.4297C196.16 37.2754 193.711 39.0156 189.715 39.0156C186.406 39.0156 184.193 37.834 183.699 35.4492H179.832C180.24 39.7676 184.064 42.2383 189.715 42.2383ZM182.883 21.1406C182.883 16.4355 185.096 12.6758 189.586 12.6758C193.926 12.6758 196.225 16.1348 196.246 21.1406C196.225 26.2754 193.861 29.3477 189.586 29.3477C185.16 29.3477 182.883 25.9746 182.883 21.1406ZM215.539 33.4727C220.352 33.4941 223.811 31.0879 224.906 27.543H220.953C220.094 28.9824 218.332 30.207 215.539 30.207C211.393 30.207 208.514 27.5 208.32 22.5586H225.25V21.0117C225.271 12.375 220.094 9.36719 215.195 9.36719C208.857 9.36719 204.625 14.3516 204.625 21.5273C204.625 28.6816 208.793 33.4941 215.539 33.4727ZM208.342 19.4219C208.6 15.8125 211.156 12.6328 215.195 12.6328C219.041 12.6328 221.49 15.5332 221.512 19.4219H208.342Z" fill="#977AE1"/>
</svg>
